<svg width="96" height="96" viewBox="0 0 96 96" fill="none" xmlns="http://www.w3.org/2000/svg">
    <g opacity="0.3">
        <path d="M61.7878 21.2793V13.2344L25.5221 27.8237C25.2854 27.9738 25.1175 28.2113 25.055 28.4845C24.9926 28.7577 25.0406 29.0446 25.1886 29.2826C25.2825 29.433 25.4154 29.555 25.5733 29.6358C25.7311 29.7165 25.9079 29.753 26.0848 29.7411H75.6063" stroke="#383838" stroke-width="2" stroke-miterlimit="10"/>
        <path d="M25.7732 28.6785L70.6051 20.3418V29.5331" stroke="#383838" stroke-width="2" stroke-miterlimit="10"/>
        <path d="M56.4268 10.1094L24.1628 23.4273C23.2394 23.7897 22.4277 24.3888 21.8093 25.1644C21.191 25.9401 20.7878 26.8649 20.6404 27.8458C20.5119 28.509 20.5157 29.191 20.6517 29.8527C20.7876 30.5144 21.0529 31.1427 21.4324 31.7015C21.9501 32.497 22.6572 33.1515 23.4903 33.6062C24.3233 34.0609 25.2563 34.3016 26.2053 34.3068H75.9352V83.702C75.9352 84.5145 75.6124 85.2938 75.0379 85.8684C74.4633 86.443 73.684 86.7657 72.8714 86.7657H24.934C23.6109 86.7602 22.3439 86.2308 21.4104 85.2933C20.4768 84.3559 19.9526 83.0867 19.9526 81.7637V29.3256C19.9706 28.7163 20.0403 28.1097 20.161 27.5123C20.4334 26.6243 20.9003 25.8082 21.5276 25.1232C22.1549 24.4383 22.927 23.9016 23.7876 23.5524L56.4268 10.1094Z" stroke="#383838" stroke-width="2" stroke-miterlimit="10"/>
        <path d="M28.9177 35.3906V85.5987" stroke="#383838" stroke-width="2" stroke-miterlimit="10"/>
        <path d="M43 83H35V86H43V83Z" fill="#383838"/>
    </g>
</svg>
